<svg width="506" height="197" viewBox="0 0 506 197" fill="none" xmlns="http://www.w3.org/2000/svg">
<path d="M24.464 149V147.56L30.368 146.12C34.304 145.256 36.272 142.856 36.272 138.92V56.84H24.032C20.48 56.84 17.936 57.8 16.4 59.72C14.864 61.544 13.232 64.088 11.504 67.352L6.32 77.432H4.88L5.6 53.96H88.688L89.264 77.432H87.824L82.64 67.352C81.008 64.088 79.424 61.544 77.888 59.72C76.352 57.8 73.808 56.84 70.256 56.84H58.016V138.92C58.016 142.856 59.984 145.256 63.92 146.12L69.824 147.56V149H24.464ZM120.337 77.576C126.577 77.576 131.905 78.872 136.321 81.464C140.737 83.96 144.097 87.416 146.401 91.832C148.801 96.152 150.001 101.096 150.001 106.664C150.001 107.72 149.953 108.824 149.857 109.976C149.761 111.032 149.569 111.992 149.281 112.856H106.369C106.465 123.224 108.289 130.712 111.841 135.32C115.489 139.832 120.865 142.088 127.969 142.088C132.769 142.088 136.657 141.32 139.633 139.784C142.609 138.248 145.393 135.992 147.985 133.016L149.425 134.312C146.449 139.592 142.465 143.72 137.473 146.696C132.577 149.672 126.673 151.16 119.761 151.16C112.945 151.16 106.897 149.72 101.617 146.84C96.3365 143.864 92.2085 139.64 89.2325 134.168C86.2565 128.696 84.7685 122.168 84.7685 114.584C84.7685 106.712 86.4965 100.04 89.9525 94.568C93.4085 89 97.8245 84.776 103.201 81.896C108.673 79.016 114.385 77.576 120.337 77.576ZM119.905 80.456C117.121 80.456 114.721 81.32 112.705 83.048C110.785 84.68 109.249 87.656 108.097 91.976C107.041 96.2 106.465 102.2 106.369 109.976H130.993C131.953 99.512 131.569 91.976 129.841 87.368C128.113 82.76 124.801 80.456 119.905 80.456ZM157.177 149V147.56L159.193 146.984C161.017 146.504 162.265 145.688 162.937 144.536C163.705 143.384 164.137 141.848 164.233 139.928V94.856C164.233 92.744 163.897 91.208 163.225 90.248C162.553 89.192 161.257 88.472 159.337 88.088L157.177 87.512V86.072L181.801 77.72L183.241 79.16L184.393 88.952C187.561 85.784 191.161 83.096 195.193 80.888C199.321 78.68 203.593 77.576 208.009 77.576C212.617 77.576 216.313 78.536 219.097 80.456C221.881 82.28 223.993 85.16 225.433 89.096C229.177 85.544 233.209 82.76 237.529 80.744C241.945 78.632 246.217 77.576 250.345 77.576C257.161 77.576 262.153 79.208 265.321 82.472C268.585 85.736 270.217 90.872 270.217 97.88V140.072C270.217 143.816 271.945 146.168 275.401 147.128L276.985 147.56V149H243.721V147.56L245.161 147.128C246.985 146.552 248.233 145.688 248.905 144.536C249.673 143.384 250.057 141.848 250.057 139.928V95.864C250.057 91.832 249.337 89.096 247.897 87.656C246.457 86.12 244.153 85.352 240.985 85.352C238.489 85.352 236.041 85.928 233.641 87.08C231.337 88.136 228.889 89.768 226.297 91.976C226.777 93.512 227.065 95.192 227.161 97.016C227.353 98.84 227.449 100.76 227.449 102.776V140.072C227.545 143.816 229.273 146.168 232.633 147.128L233.929 147.56V149H200.521V147.56L202.537 146.984C204.361 146.408 205.609 145.592 206.281 144.536C207.049 143.384 207.433 141.848 207.433 139.928V96.008C207.433 92.168 206.713 89.432 205.273 87.8C203.929 86.168 201.577 85.352 198.217 85.352C196.009 85.352 193.801 85.928 191.593 87.08C189.385 88.136 187.081 89.72 184.681 91.832V140.072C184.681 143.816 186.361 146.168 189.721 147.128L191.017 147.56V149H157.177ZM280.505 182.12V180.68L282.233 180.104C285.785 179.144 287.561 176.84 287.561 173.192V94.856C287.561 92.744 287.177 91.16 286.409 90.104C285.737 89.048 284.441 88.328 282.521 87.944L280.505 87.512V86.072L304.985 77.72L306.425 79.16L307.721 83.624C310.889 81.704 314.393 80.216 318.233 79.16C322.169 78.104 326.201 77.576 330.329 77.576C338.585 77.576 345.113 80.744 349.913 87.08C354.809 93.32 357.257 102.296 357.257 114.008C357.257 125.528 354.569 134.6 349.193 141.224C343.913 147.848 336.425 151.16 326.729 151.16C319.145 151.16 312.761 150.056 307.577 147.848V172.76C307.577 176.6 309.305 179 312.761 179.96L315.497 180.68V182.12H280.505ZM319.817 146.984C324.617 146.984 328.409 144.488 331.193 139.496C334.073 134.504 335.513 126.2 335.513 114.584C335.513 102.968 334.169 94.856 331.481 90.248C328.793 85.544 324.905 83.192 319.817 83.192C316.265 83.192 312.329 84.344 308.009 86.648V144.68C311.657 146.216 315.593 146.984 319.817 146.984ZM389.257 151.16C385.513 151.16 382.057 150.44 378.889 149C375.817 147.56 373.369 145.256 371.545 142.088C369.817 138.824 369.001 134.552 369.097 129.272L369.529 92.264C369.529 90.056 369.145 88.472 368.377 87.512C367.609 86.552 366.409 85.88 364.777 85.496L363.049 84.92V83.48L388.825 78.44L390.265 79.88L389.545 100.328V135.032C389.545 138.104 390.409 140.36 392.137 141.8C393.961 143.24 396.217 143.96 398.905 143.96C401.593 143.96 403.993 143.576 406.105 142.808C408.217 142.04 410.329 140.888 412.441 139.352L413.017 92.408C413.017 90.2 412.681 88.664 412.009 87.8C411.337 86.84 410.089 86.168 408.265 85.784L406.825 85.352V83.912L432.025 78.44L433.465 79.88L433.032 100.328V139.352C433.032 141.464 433.321 143.096 433.897 144.248C434.473 145.4 435.721 146.36 437.641 147.128L439.081 147.56V149L413.881 150.44L412.585 141.944C409.417 144.536 405.961 146.744 402.217 148.568C398.569 150.296 394.249 151.16 389.257 151.16ZM470.651 151.16C465.947 151.16 461.723 150.584 457.979 149.432C454.235 148.376 450.779 147.032 447.611 145.4L447.755 128.264H449.195L454.091 136.904C456.203 140.744 458.507 143.624 461.003 145.544C463.595 147.368 466.859 148.28 470.795 148.28C475.403 148.28 479.099 147.272 481.883 145.256C484.763 143.144 486.203 140.36 486.203 136.904C486.203 133.736 485.195 131.144 483.179 129.128C481.163 127.112 477.419 125.288 471.947 123.656L465.899 121.784C460.043 120.056 455.435 117.368 452.075 113.72C448.715 110.072 447.035 105.608 447.035 100.328C447.035 93.992 449.531 88.616 454.523 84.2C459.515 79.784 466.667 77.576 475.979 77.576C479.723 77.576 483.227 78.008 486.491 78.872C489.851 79.64 493.067 80.84 496.139 82.472L495.275 98.024H493.835L488.795 89.096C486.971 85.928 485.147 83.72 483.323 82.472C481.595 81.128 478.955 80.456 475.403 80.456C472.139 80.456 469.067 81.368 466.187 83.192C463.307 85.016 461.867 87.608 461.867 90.968C461.867 94.232 463.067 96.824 465.467 98.744C467.963 100.664 471.611 102.44 476.411 104.072L482.891 105.944C489.803 108.056 494.747 110.984 497.723 114.728C500.699 118.376 502.187 122.792 502.187 127.976C502.187 134.984 499.403 140.6 493.835 144.824C488.363 149.048 480.635 151.16 470.651 151.16Z" fill="black"/>
<path d="M388 181L2 180" stroke="black" stroke-width="4" stroke-linecap="round" stroke-linejoin="round"/>
</svg>
